<?xml version="1.0" encoding="utf-8"?>
<!-- Generator: Adobe Illustrator 16.0.0, SVG Export Plug-In . SVG Version: 6.00 Build 0)  -->
<!DOCTYPE svg PUBLIC "-//W3C//DTD SVG 1.1//EN" "http://www.w3.org/Graphics/SVG/1.1/DTD/svg11.dtd">
<svg version="1.1" id="Layer_1" xmlns="http://www.w3.org/2000/svg" xmlns:xlink="http://www.w3.org/1999/xlink" x="0px" y="0px"
	 width="960px" height="560px" viewBox="0 0 960 560" enable-background="new 0 0 960 560" xml:space="preserve">
<rect x="785" y="314" opacity="0.2" fill="#3FA9F5" width="129" height="34"/>
<rect x="102" y="21" opacity="0.3" fill="#3FA9F5" width="148" height="48"/>
<rect x="721" y="470" opacity="0.3" fill="#3FA9F5" width="40" height="10"/>
<rect x="705" y="397" opacity="0.3" fill="#3FA9F5" width="166" height="12"/>
<rect x="-83" y="213" opacity="0.3" fill="#3FA9F5" width="327" height="15"/>
<rect x="-33" y="390" opacity="0.3" fill="#3FA9F5" width="229" height="7"/>
<rect x="850" y="153" opacity="0.3" fill="#3FA9F5" width="21" height="35"/>
<rect x="81" y="280" opacity="0.3" fill="#3FA9F5" width="21" height="37"/>
<rect x="788" y="22" opacity="0.3" fill="#3FA9F5" width="112" height="45"/>
<rect x="106" y="422" opacity="0.2" fill="#3FA9F5" width="41" height="45"/>
<rect x="775" y="221" opacity="0.3" fill="#3FA9F5" width="192" height="14"/>
<rect x="64" y="136" opacity="0.2" fill="#3FA9F5" width="94" height="17"/>
<rect x="757" y="535" opacity="0.3" fill="#3FA9F5" width="66" height="25"/>
<rect x="912" y="445" opacity="0.3" fill="#3FA9F5" width="48" height="11"/>
<rect x="711" y="84" opacity="0.2" fill="#3FA9F5" width="50" height="26"/>
<rect x="121" y="509" opacity="0.3" fill="#3FA9F5" width="69" height="25"/>
<rect y="501" opacity="0.2" fill="#3FA9F5" width="23" height="20"/>
</svg>
