<?xml version="1.0" encoding="UTF-8"?>
<svg width="203px" height="204px" viewBox="0 0 203 204" version="1.1" xmlns="http://www.w3.org/2000/svg" xmlns:xlink="http://www.w3.org/1999/xlink" style="background: #FFFFFF;">
    <title>icon</title>
    <defs>
        <linearGradient x1="0%" y1="50%" x2="100%" y2="50%" id="linearGradient-1">
            <stop stop-color="#FAD961" offset="0%"></stop>
            <stop stop-color="#F76B1C" offset="100%"></stop>
        </linearGradient>
    </defs>
    <g id="Page-1" stroke="none" stroke-width="1" fill="none" fill-rule="evenodd">
        <g id="Artboard" transform="translate(-83.000000, -14.000000)" fill="url(#linearGradient-1)">
            <g id="Path-3" transform="translate(91.015168, 25.770025)">
                <path d="M1.87609697,173.671569 L58.0923892,14.0078553 L58.0923892,14.0078553 C64.514179,11.2466956 70.518112,11.2466956 76.1041883,14.0078553 C81.6902645,16.7690149 87.7769014,21.33594 94.3640988,27.7086307 L94.3640988,27.7086307 L133.04854,55.2900849 C137.09574,58.1756809 142.715882,57.2340146 145.601478,53.1868144 C145.657614,53.1080802 145.712478,53.0284465 145.766048,52.9479443 L178.136509,4.30312135 C178.442472,3.84333361 179.063236,3.71863443 179.523024,4.02459795 C179.862926,4.25078422 180.03119,4.6608895 179.948101,5.06062683 L157.274642,114.141379 C156.263089,119.007926 151.497945,122.133012 146.631398,121.121454 C145.250895,120.834504 143.957125,120.227207 142.854383,119.348519 C109.148383,92.4908845 89.205213,79.0620672 83.0248716,79.0620672 C72.751044,79.0620672 52.9976934,179 42.6354437,179 C30.3066501,179 17.9778565,179 5.64906294,179 C3.43992394,179 1.64906294,177.209139 1.64906294,175 C1.64906294,174.547536 1.7258303,174.098352 1.87609697,173.671569 Z"></path>
            </g>
        </g>
    </g>
</svg>