<?xml version="1.0" encoding="UTF-8"?>
<svg width="300px" height="169px" viewBox="0 0 300 169" version="1.1" xmlns="http://www.w3.org/2000/svg" xmlns:xlink="http://www.w3.org/1999/xlink">
    <title>logo</title>
    <defs>
        <path d="M1.04,72.28 L1.04,27.56 C1.04,25.8266667 1.01833333,23.5733333 0.975,20.8 C0.931666667,18.0266667 0.845,15.2966667 0.715,12.61 C0.585,9.92333333 0.346666667,7.8 0,6.24 L0.26,5.2 C2.51333333,4.33333333 5.30833333,3.59666667 8.645,2.99 C11.9816667,2.38333333 15.3183333,1.90666667 18.655,1.56 C21.9916667,1.21333333 24.7866667,1.04 27.04,1.04 C29.12,1.04 30.81,1.08333333 32.11,1.17 C33.41,1.25666667 34.4933333,1.38666667 35.36,1.56 L35.36,11.96 L34.32,11.96 C33.1933333,11.7866667 31.85,11.6566667 30.29,11.57 C28.73,11.4833333 27.3,11.44 26,11.44 C23.3133333,11.44 20.4966667,11.6566667 17.55,12.09 C14.6033333,12.5233333 12.0466667,12.9566667 9.88,13.39 L12.22,10.14 C12.74,13 13,16.5533333 13,20.8 L13,72.28 L1.04,72.28 Z" id="path-1"></path>
        <path d="M80.6000001,73.84 C76.0933334,73.84 71.8683334,73.385 67.9250001,72.475 C63.9816667,71.565 60.5583334,69.9616667 57.6550001,67.665 C54.7516667,65.3683333 52.4766667,62.2266667 50.8300001,58.24 C49.1833334,54.2533333 48.3600001,49.2266667 48.3600001,43.16 L48.3600001,23.92 C48.3600001,22.1866667 48.3383334,19.9333333 48.2950001,17.16 C48.2516667,14.3866667 48.1650001,11.6566667 48.0350001,8.97 C47.9050001,6.28333333 47.6666667,4.16 47.3200001,2.6 L47.5800001,1.56 L60.3200001,1.56 L60.3200001,42.12 C60.3200001,47.84 61.1650001,52.2383333 62.8550001,55.315 C64.5450001,58.3916667 67.0150001,60.515 70.2650001,61.685 C73.5150001,62.855 77.4366667,63.44 82.0300001,63.44 C84.8033334,63.44 87.6416667,63.2016667 90.5450001,62.725 C93.4483334,62.2483333 95.9833334,61.7066667 98.1500001,61.1 L95.9400001,64.22 C95.5933334,63.0066667 95.3766667,61.49 95.2900001,59.67 C95.2033334,57.85 95.1600001,55.9866667 95.1600001,54.08 L95.1600001,23.92 C95.1600001,22.1866667 95.1383334,19.9333333 95.0950001,17.16 C95.0516667,14.3866667 94.9650001,11.6566667 94.8350001,8.97 C94.7050001,6.28333333 94.4666667,4.16 94.1200001,2.6 L94.3800001,1.56 L107.12,1.56 L107.12,46.8 C107.12,48.5333333 107.141667,50.7866667 107.185,53.56 C107.228333,56.3333333 107.315,59.0633333 107.445,61.75 C107.575,64.4366667 107.813333,66.56 108.16,68.12 L107.9,69.16 C105.646667,70.0266667 102.808333,70.8066667 99.3850001,71.5 C95.9616667,72.1933333 92.5383334,72.7566667 89.1150001,73.19 C85.6916667,73.6233333 82.8533334,73.84 80.6000001,73.84 Z" id="path-2"></path>
        <path d="M130,72.28 L130,27.56 C130,25.8266667 129.978333,23.5733333 129.935,20.8 C129.891667,18.0266667 129.805,15.2966667 129.675,12.61 C129.545,9.92333333 129.306667,7.8 128.96,6.24 L129.22,5.2 C131.473333,4.33333333 134.333333,3.51 137.8,2.73 C141.266667,1.95 144.776667,1.3 148.33,0.78 C151.883333,0.26 154.96,0 157.56,0 C161.893333,0 165.923333,0.455 169.65,1.365 C173.376667,2.275 176.691667,3.87833333 179.595,6.175 C182.498333,8.47166667 184.751667,11.5916667 186.355,15.535 C187.958333,19.4783333 188.76,24.5266667 188.76,30.68 L188.76,72.28 L176.8,72.28 L176.8,31.72 C176.8,26 175.976667,21.6016667 174.33,18.525 C172.683333,15.4483333 170.3,13.325 167.18,12.155 C164.06,10.985 160.333333,10.4 156,10.4 C153.226667,10.4 150.258333,10.7033333 147.095,11.31 C143.931667,11.9166667 141.18,12.6533333 138.84,13.52 L140.92,9.88 C141.266667,11.18 141.526667,12.805 141.7,14.755 C141.873333,16.705 141.96,18.72 141.96,20.8 L141.96,72.28 L130,72.28 Z" id="path-3"></path>
        <path d="M205.4,36.66 C205.4,28.9466667 206.765,22.36 209.495,16.9 C212.225,11.44 216.038334,7.25833333 220.935,4.355 C225.831667,1.45166667 231.486667,0 237.9,0 C244.313334,0 249.968334,1.45166667 254.865,4.355 C259.761667,7.25833333 263.575,11.44 266.305,16.9 C269.035,22.36 270.4,28.9466667 270.4,36.66 C270.4,44.3733333 269.035,50.96 266.305,56.42 C263.575,61.88 259.761667,66.0616667 254.865,68.965 C249.968334,71.8683333 244.313334,73.32 237.9,73.32 C231.313334,73.32 225.593334,71.8683333 220.74,68.965 C215.886667,66.0616667 212.116667,61.88 209.43,56.42 C206.743334,50.96 205.4,44.3733333 205.4,36.66 Z M217.62,36.66 C217.62,45.3266667 219.375,51.87 222.885,56.29 C226.395,60.71 231.4,62.92 237.9,62.92 C244.4,62.92 249.405,60.71 252.915,56.29 C256.425,51.87 258.18,45.3266667 258.18,36.66 C258.18,27.9066667 256.425,21.3416667 252.915,16.965 C249.405,12.5883333 244.4,10.4 237.9,10.4 C231.4,10.4 226.395,12.5883333 222.885,16.965 C219.375,21.3416667 217.62,27.9066667 217.62,36.66 Z" id="path-4"></path>
    </defs>
    <g id="logo" stroke="none" stroke-width="1" fill="none" fill-rule="evenodd">
        <g id="runo" transform="translate(18.180000, 44.720000)" fill-rule="nonzero">
            <g id="r">
                <use fill="#3D3D3D" xlink:href="#path-1"></use>
                <use fill="#F77421" xlink:href="#path-1"></use>
            </g>
            <g id="u">
                <use fill="#3D3D3D" xlink:href="#path-2"></use>
                <use fill="#F77421" xlink:href="#path-2"></use>
            </g>
            <g id="n">
                <use fill="#3D3D3D" xlink:href="#path-3"></use>
                <use fill="#F77421" xlink:href="#path-3"></use>
            </g>
            <g id="o">
                <use fill="#3D3D3D" xlink:href="#path-4"></use>
                <use fill="#F77421" xlink:href="#path-4"></use>
            </g>
        </g>
    </g>
</svg>