<?xml version="1.0" encoding="UTF-8"?>
<svg width="387px" height="101px" viewBox="0 0 387 101" version="1.1" xmlns="http://www.w3.org/2000/svg" xmlns:xlink="http://www.w3.org/1999/xlink">
    <title>Artboard</title>
    <g id="Artboard" stroke="none" stroke-width="1" fill="none" fill-rule="evenodd">
        <path d="M51.0410156,81.0742188 C55.015625,81.0742188 58.0234375,78.3886719 58.0234375,74.7363281 C58.0234375,73.125 57.7011719,71.9433594 56.5195312,69.9560547 L44.2734375,48.4716797 C53.2431641,44.9804688 58.3994141,36.7089844 58.3994141,26.6113281 C58.3994141,11.7871094 48.3554688,2.49511719 31.5976562,2.49511719 L7.75,2.49511719 C3.453125,2.49511719 0.821289062,5.18066406 0.821289062,9.69238281 L0.821289062,73.8769531 C0.821289062,78.3886719 3.453125,81.0742188 7.75,81.0742188 C12.046875,81.0742188 14.6787109,78.3886719 14.6787109,73.8769531 L14.6787109,50.8349609 L30.2011719,50.8349609 L44.0048828,76.0791016 C46.1533203,79.8925781 47.7646484,81.0742188 51.0410156,81.0742188 Z M30.3085938,40.2001953 L14.6787109,40.2001953 L14.6787109,13.7207031 L30.0400391,13.7207031 C38.7949219,13.7207031 44.2197266,18.7695312 44.2197266,26.9335938 C44.2197266,35.3125 39.1171875,40.2001953 30.3085938,40.2001953 Z M111.531992,81.0742188 C115.452891,81.0742188 118.245859,78.5498047 118.245859,74.0380859 L118.245859,43.3154297 C118.245859,30.2636719 110.887461,21.9921875 98.3191016,21.9921875 C89.6716407,21.9921875 83.387461,25.9130859 80.3259375,32.8417969 L80.0573829,32.8417969 L80.0573829,8.29589844 C80.0573829,4.05273438 77.5866797,1.42089844 73.4509375,1.42089844 C69.3689063,1.42089844 66.8444922,4.05273438 66.8444922,8.29589844 L66.8444922,74.0380859 C66.8444922,78.5498047 69.637461,81.0742188 73.5583594,81.0742188 C77.4792579,81.0742188 80.2185157,78.5498047 80.2185157,74.0380859 L80.2185157,47.2900391 C80.2185157,38.9111328 85.106211,33.3251953 93.1628516,33.3251953 C100.897227,33.3251953 104.871836,38.1054688 104.871836,46.0546875 L104.871836,74.0380859 C104.871836,78.5498047 107.611094,81.0742188 111.531992,81.0742188 Z M134.156758,15.0634766 C138.346211,15.0634766 141.622578,11.8408203 141.622578,7.8125 C141.622578,3.73046875 138.346211,0.561523438 134.156758,0.561523438 C130.021016,0.561523438 126.744649,3.73046875 126.744649,7.8125 C126.744649,11.8408203 130.021016,15.0634766 134.156758,15.0634766 Z M134.156758,81.0742188 C138.238789,81.0742188 140.870625,78.3886719 140.870625,74.0380859 L140.870625,29.0283203 C140.870625,24.6777344 138.238789,21.9384766 134.156758,21.9384766 C130.074727,21.9384766 127.496602,24.6777344 127.496602,28.9746094 L127.496602,74.0380859 C127.496602,78.3886719 130.074727,81.0742188 134.156758,81.0742188 Z M194.37918,81.0742188 C198.300078,81.0742188 201.039336,78.5498047 201.039336,74.0380859 L201.039336,43.2080078 C201.039336,30.0488281 193.895781,21.9921875 181.327422,21.9921875 C172.572539,21.9921875 166.664336,25.9130859 163.602813,32.6806641 L163.334258,32.6806641 L163.334258,28.7060547 C163.334258,24.5703125 160.648711,21.9384766 156.727813,21.9384766 C152.753203,21.9384766 150.336211,24.5703125 150.336211,28.7060547 L150.336211,74.0380859 C150.336211,78.5498047 153.075469,81.0742188 156.996367,81.0742188 C160.917266,81.0742188 163.710234,78.5498047 163.710234,74.0380859 L163.710234,47.0214844 C163.710234,38.8574219 168.59793,33.3251953 176.278594,33.3251953 C183.905547,33.3251953 187.665313,37.8369141 187.665313,45.8935547 L187.665313,74.0380859 C187.665313,78.5498047 190.458281,81.0742188 194.37918,81.0742188 Z M235.158242,81.1279297 C251.862344,81.1279297 262.711953,70.0097656 262.711953,51.5332031 C262.711953,33.1103516 251.754922,21.8847656 235.158242,21.8847656 C218.561563,21.8847656 207.604531,33.1640625 207.604531,51.5332031 C207.604531,70.0097656 218.454141,81.1279297 235.158242,81.1279297 Z M235.158242,70.546875 C226.671914,70.546875 221.193399,63.671875 221.193399,51.5332031 C221.193399,39.4482422 226.725625,32.5195312 235.158242,32.5195312 C243.64457,32.5195312 249.123086,39.4482422 249.123086,51.5332031 C249.123086,63.671875 243.64457,70.546875 235.158242,70.546875 Z M272.822071,80.859375 C274.057422,80.859375 274.916797,79.9462891 274.916797,78.6035156 L274.916797,3.89160156 C274.916797,2.54882812 274.057422,1.63574219 272.822071,1.63574219 C271.586719,1.63574219 270.727344,2.54882812 270.727344,3.89160156 L270.727344,78.6035156 C270.727344,79.9462891 271.586719,80.859375 272.822071,80.859375 Z M308.068906,80.859375 C323.107969,80.859375 332.990781,69.5263672 332.990781,52.0703125 C332.990781,34.5605469 323.107969,23.28125 308.068906,23.28125 C293.083555,23.28125 283.200742,34.5605469 283.200742,52.0703125 C283.200742,69.5800781 293.083555,80.859375 308.068906,80.859375 Z M308.068906,77.0996094 C295.554258,77.0996094 287.390196,67.4316406 287.390196,52.0703125 C287.390196,36.7089844 295.554258,27.0410156 308.068906,27.0410156 C320.637266,27.0410156 328.801328,36.7626953 328.801328,52.0703125 C328.801328,67.3779297 320.637266,77.0996094 308.068906,77.0996094 Z M363.027657,100.14186 C377.583321,100.195312 386.606758,91.8701172 386.606758,79.3554688 L386.606758,25.4833984 C386.606758,24.140625 385.693672,23.28125 384.512032,23.28125 C383.330391,23.28125 382.417305,24.140625 382.417305,25.4833984 L382.417305,38.6962891 L382.309883,38.6962891 C379.731758,30.2636719 372.104805,23.28125 361.52375,23.28125 C347.612617,23.28125 337.99836,34.8291016 337.99836,52.0166016 C337.99836,69.1503906 347.558907,80.6982422 361.470039,80.6982422 C371.889961,80.6982422 379.83918,73.8769531 382.309883,65.1757812 L382.417305,65.1757812 L382.417305,79.5166016 C382.417305,89.7216797 375.058907,96.5429688 363.188789,96.4892578 C354.111641,96.4892578 348.31086,92.2460938 345.517891,86.7675781 C344.927071,85.7470703 344.389961,85.3173828 343.584297,85.3173828 C342.348946,85.3173828 341.596992,86.0693359 341.596992,87.1972656 C341.596992,87.8417969 341.758125,88.4326172 342.134102,89.0771484 C344.927071,95.2001953 352.285469,100.14186 363.027657,100.14186 Z M362.114571,76.9384766 C350.244453,76.9384766 342.187813,66.9482422 342.187813,52.0703125 C342.187813,37.0849609 350.244453,27.0410156 362.114571,27.0410156 C374.038399,27.0410156 382.417305,37.2460938 382.417305,52.0166016 C382.417305,66.7333984 374.09211,76.9384766 362.114571,76.9384766 Z" id="Rhinolog" fill="#3D3D3D" fill-rule="nonzero"></path>
    </g>
</svg>