<?xml version="1.0" encoding="UTF-8"?>
<svg width="522px" height="160px" viewBox="0 0 522 160" version="1.1" xmlns="http://www.w3.org/2000/svg" xmlns:xlink="http://www.w3.org/1999/xlink">
    <title>Artboard</title>
    <g id="Artboard" stroke="none" stroke-width="1" fill="none" fill-rule="evenodd">
        <path d="M24.5466946,117 L24.5466946,65.52 C24.5466946,62.6888889 24.431139,60.1659259 24.2000279,57.9511111 L24.1606946,57.599 L24.6759253,57.51 C25.8420792,57.31 27.0913099,57.11 28.4236176,56.91 L29.0966946,56.81 C32.0433612,56.3766667 34.8600279,56.16 37.5466946,56.16 C38.8466946,56.16 40.2766946,56.2033333 41.8366946,56.29 C43.3966946,56.3766667 44.7400279,56.5066667 45.8666946,56.68 L45.8666946,56.68 L46.9066946,56.68 L46.9066946,46.28 C46.0400279,46.1066667 44.9566946,45.9766667 43.6566946,45.89 C42.3566946,45.8033333 40.6666946,45.76 38.5866946,45.76 C36.3333612,45.76 33.5383612,45.9333333 30.2016946,46.28 C26.8650279,46.6266667 23.5283612,47.1033333 20.1916946,47.71 C16.8550279,48.3166667 14.0600279,49.0533333 11.8066946,49.92 L11.8066946,49.92 L11.5466946,50.96 C11.8933612,52.52 12.1316946,54.6433333 12.2616946,57.33 C12.3916946,60.0166667 12.4783612,62.7466667 12.5216946,65.52 C12.5650279,68.2933333 12.5866946,70.5466667 12.5866946,72.28 L12.5866946,72.28 L12.5866946,117 L24.5466946,117 Z M72.3866946,117 L72.3866946,58.864 L72.5672502,58.7945062 C73.1594724,58.5714198 73.7733613,58.3507407 74.4089168,58.1324691 L75.0516946,57.915 C77.0016946,57.265 79.0816946,56.7233333 81.2916946,56.29 C83.5016946,55.8566667 85.7333613,55.64 87.9866946,55.64 C91.8000279,55.64 95.1583613,56.225 98.0616946,57.395 C100.965028,58.565 103.218361,60.6883333 104.821695,63.765 C106.425028,66.8416667 107.226695,71.24 107.226695,76.96 L107.226695,76.96 L107.226695,117 L119.186695,117 L119.186695,75.4 C119.186695,69.2466667 118.385028,64.1983333 116.781695,60.255 C115.178361,56.3116667 113.033361,53.1916667 110.346695,50.895 C107.660028,48.5983333 104.605028,46.995 101.181695,46.085 C97.7583613,45.175 94.2266946,44.72 90.5866946,44.72 C86.2533613,44.72 82.4183613,45.2183333 79.0816946,46.215 C76.9583613,46.8492424 74.9490913,47.5449036 73.0538847,48.3019835 L72.3866946,48.574 L72.3866946,18.2 L59.6466946,18.2 L59.3866946,19.24 C59.7333613,20.8 59.9716946,22.9233333 60.1016946,25.61 C60.2316946,28.2966667 60.3183613,31.0266667 60.3616946,33.8 C60.4050279,36.5733333 60.4266946,38.8266667 60.4266946,40.56 L60.4266946,40.56 L60.4266946,117 L72.3866946,117 Z M147.526695,33.8 C149.780028,33.8 151.643361,33.085 153.116695,31.655 C154.590028,30.225 155.326695,28.34 155.326695,26 C155.326695,23.66 154.590028,21.775 153.116695,20.345 C151.643361,18.915 149.780028,18.2 147.526695,18.2 C145.360028,18.2 143.518361,18.915 142.001695,20.345 C140.485028,21.775 139.726695,23.66 139.726695,26 C139.726695,28.34 140.485028,30.225 142.001695,31.655 C143.518361,33.085 145.360028,33.8 147.526695,33.8 Z M153.506695,117 L153.506695,46.28 L140.766695,46.28 L140.506695,47.32 C140.853361,48.88 141.091695,51.0033333 141.221695,53.69 C141.351695,56.3766667 141.438361,59.1066667 141.481695,61.88 C141.525028,64.6533333 141.546695,66.9066667 141.546695,68.64 L141.546695,68.64 L141.546695,117 L153.506695,117 Z M188.346695,117 L188.346695,65.52 C188.346695,63.44 188.260028,61.425 188.086695,59.475 C188.028917,58.825 187.96151,58.2111111 187.884472,57.6333333 L187.847695,57.375 L187.891363,57.3611735 C189.396533,56.9189966 191.036125,56.5192687 192.810139,56.1619898 L193.481695,56.03 C196.645028,55.4233333 199.613361,55.12 202.386695,55.12 C206.720028,55.12 210.446695,55.705 213.566695,56.875 C216.686695,58.045 219.070028,60.1683333 220.716695,63.245 C222.363361,66.3216667 223.186695,70.72 223.186695,76.44 L223.186695,76.44 L223.186695,117 L235.146695,117 L235.146695,75.4 C235.146695,69.2466667 234.345028,64.1983333 232.741695,60.255 C231.138361,56.3116667 228.885028,53.1916667 225.981695,50.895 C223.078361,48.5983333 219.763361,46.995 216.036695,46.085 C212.310028,45.175 208.280028,44.72 203.946695,44.72 C201.346695,44.72 198.270028,44.98 194.716695,45.5 C191.163361,46.02 187.653361,46.67 184.186695,47.45 C180.720028,48.23 177.860028,49.0533333 175.606695,49.92 L175.606695,49.92 L175.346695,50.96 C175.693361,52.52 175.931695,54.6433333 176.061695,57.33 C176.191695,60.0166667 176.278361,62.7466667 176.321695,65.52 C176.365028,68.2933333 176.386695,70.5466667 176.386695,72.28 L176.386695,72.28 L176.386695,117 L188.346695,117 Z M284.286695,118.04 C290.700028,118.04 296.355028,116.588333 301.251695,113.685 C306.148361,110.781667 309.961695,106.6 312.691695,101.14 C315.421695,95.68 316.786695,89.0933333 316.786695,81.38 C316.786695,73.6666667 315.421695,67.08 312.691695,61.62 C309.961695,56.16 306.148361,51.9783333 301.251695,49.075 C296.355028,46.1716667 290.700028,44.72 284.286695,44.72 C277.873361,44.72 272.218361,46.1716667 267.321695,49.075 C262.425028,51.9783333 258.611695,56.16 255.881695,61.62 C253.151695,67.08 251.786695,73.6666667 251.786695,81.38 C251.786695,89.0933333 253.130028,95.68 255.816695,101.14 C258.503361,106.6 262.273361,110.781667 267.126695,113.685 C271.980028,116.588333 277.700028,118.04 284.286695,118.04 Z M284.286695,107.64 C277.786695,107.64 272.781695,105.43 269.271695,101.01 C265.761695,96.59 264.006695,90.0466667 264.006695,81.38 C264.006695,72.6266667 265.761695,66.0616667 269.271695,61.685 C272.781695,57.3083333 277.786695,55.12 284.286695,55.12 C290.786695,55.12 295.791695,57.3083333 299.301695,61.685 C302.811695,66.0616667 304.566695,72.6266667 304.566695,81.38 C304.566695,90.0466667 302.811695,96.59 299.301695,101.01 C295.791695,105.43 290.786695,107.64 284.286695,107.64 Z" id="rhino" fill="#F77421" fill-rule="nonzero"></path>
        <path d="M353.44,117.108787 L353.44,18.3087866 L340.7,18.3087866 L340.44,19.3487866 C340.786667,20.9087866 341.025,23.0321199 341.155,25.7187866 C341.285,28.4054533 341.371667,31.1354533 341.415,33.9087866 C341.458333,36.6821199 341.48,38.9354533 341.48,40.6687866 L341.48,40.6687866 L341.48,117.108787 L353.44,117.108787 Z M403.1,118.148787 C409.513333,118.148787 415.168333,116.69712 420.065,113.793787 C424.961667,110.890453 428.775,106.708787 431.505,101.248787 C434.235,95.7887866 435.6,89.2021199 435.6,81.4887866 C435.6,73.7754533 434.235,67.1887866 431.505,61.7287866 C428.775,56.2687866 424.961667,52.0871199 420.065,49.1837866 C415.168333,46.2804533 409.513333,44.8287866 403.1,44.8287866 C396.686667,44.8287866 391.031667,46.2804533 386.135,49.1837866 C381.238333,52.0871199 377.425,56.2687866 374.695,61.7287866 C371.965,67.1887866 370.6,73.7754533 370.6,81.4887866 C370.6,89.2021199 371.943333,95.7887866 374.63,101.248787 C377.316667,106.708787 381.086667,110.890453 385.94,113.793787 C390.793333,116.69712 396.513333,118.148787 403.1,118.148787 Z M403.1,107.748787 C396.6,107.748787 391.595,105.538787 388.085,101.118787 C384.575,96.6987866 382.82,90.1554533 382.82,81.4887866 C382.82,72.7354533 384.575,66.1704533 388.085,61.7937866 C391.595,57.4171199 396.6,55.2287866 403.1,55.2287866 C409.6,55.2287866 414.605,57.4171199 418.115,61.7937866 C421.625,66.1704533 423.38,72.7354533 423.38,81.4887866 C423.38,90.1554533 421.625,96.6987866 418.115,101.118787 C414.605,105.538787 409.6,107.748787 403.1,107.748787 Z M473.56,148.308787 C481.013333,148.308787 487.361667,146.98712 492.605,144.343787 C497.848333,141.700453 501.835,137.88712 504.565,132.903787 C507.295,127.920453 508.66,121.96212 508.66,115.028787 L508.66,115.028787 L508.660289,71.5151866 C508.662985,69.8326977 508.684556,67.6972311 508.725,65.1087866 C508.768333,62.3354533 508.855,59.6054533 508.985,56.9187866 C509.115,54.2321199 509.353333,52.1087866 509.7,50.5487866 L509.7,50.5487866 L509.44,49.5087866 C506.06,48.2087866 502.203333,47.1037866 497.87,46.1937866 C493.536667,45.2837866 489.42,44.8287866 485.52,44.8287866 C479.54,44.8287866 474.21,45.6737866 469.53,47.3637866 C464.85,49.0537866 460.863333,51.4804533 457.57,54.6437866 C454.276667,57.8071199 451.785,61.6204533 450.095,66.0837866 C448.405,70.5471199 447.56,75.5954533 447.56,81.2287866 C447.56,89.0287866 449.12,95.5504533 452.24,100.793787 C455.36,106.03712 459.736667,109.980453 465.37,112.623787 C471.003333,115.26712 477.546667,116.588787 485,116.588787 C487.08,116.588787 489.246667,116.415453 491.5,116.068787 C493.06,115.828787 494.786154,115.50571 496.678462,115.099556 L496.7,115.094787 L496.69636,115.648419 C496.640547,120.365443 495.94288,124.312243 494.60336,127.488819 L494.425,127.898787 C492.908333,131.278787 490.46,133.79212 487.08,135.438787 C483.7,137.085453 479.193333,137.908787 473.56,137.908787 C470.786667,137.908787 467.688333,137.62712 464.265,137.063787 C460.841667,136.500453 457.7,135.568787 454.84,134.268787 L454.84,134.268787 L453.8,134.268787 L453.8,144.928787 C456.4,146.055453 459.563333,146.900453 463.29,147.463787 C467.016667,148.02712 470.44,148.308787 473.56,148.308787 Z M485.52,106.188787 C476.94,106.188787 470.505,104.108787 466.215,99.9487866 C461.925,95.7887866 459.78,89.5487866 459.78,81.2287866 C459.78,75.5087866 460.733333,70.7204533 462.64,66.8637866 C464.546667,63.0071199 467.406667,60.1037866 471.22,58.1537866 C475.033333,56.2037866 479.8,55.2287866 485.52,55.2287866 C488.293333,55.2287866 490.871667,55.4887866 493.255,56.0087866 C494.579074,56.2976755 495.829589,56.5999389 497.006543,56.9155767 L497.101,56.9417866 L497.046667,57.4676755 C497.017778,57.7613792 496.990695,58.0574903 496.965417,58.3560088 L496.895,59.2587866 C496.765,61.0787866 496.7,63.0287866 496.7,65.1087866 L496.7,65.1087866 L496.7,104.621787 L496.656154,104.63494 C495.345898,105.051351 494.098462,105.367248 492.913846,105.582633 L492.41,105.668787 C490.243333,106.015453 487.946667,106.188787 485.52,106.188787 Z" id="log" fill="#FAD55E" fill-rule="nonzero"></path>
    </g>
</svg>